# xmcd
#
# Track frame offsets: 
#        150
#        20367
#        41755
#        59100
#        74825
#        93077
#        112080
#        129935
#        160142
#        180130
#
# Disc length: 2701 seconds
#
# Revision: 0
# Processed by: cddbd v1.5.2PL0 Copyright (c) Steve Scherf et al.
# Submitted via: ExactAudioCopy v0.99pb5
#
DISCID=850a8b0a
DTITLE=Maurice Davis - The Right Way
DYEAR=2004
DGENRE=Blues
TTITLE0=I Woke Up
TTITLE1=Her Memory Keeps Knocking
TTITLE2=Letting Go
TTITLE3=I've Been Had
TTITLE4=I've Got Memories
TTITLE5=Trouble
TTITLE6=I'm A Blues Man
TTITLE7=If I Had A Chance To Love You
TTITLE8=I'm No Fool
TTITLE9=Leave Me Alone
EXTD=
EXTT0=
EXTT1=
EXTT2=
EXTT3=
EXTT4=
EXTT5=
EXTT6=
EXTT7=
EXTT8=
EXTT9=
PLAYORDER=
